<svg width="24" height="24" viewBox="0 0 24 24" fill="none" xmlns="http://www.w3.org/2000/svg">
<mask id="path-1-inside-1_32_397" fill="white">
<path d="M3 2.47076C3 2.04033 3.27473 1.65486 3.68897 1.53792C6.27181 0.808791 8.85466 0.820889 11.4375 1.57422L12.5625 1.92578C14.9302 2.61637 17.298 2.68405 19.6657 2.12882C20.3303 1.97299 21 2.45487 21 3.13743V13.0292C21 13.4597 20.7253 13.8451 20.311 13.9621C17.7282 14.6912 15.1453 14.6791 12.5625 13.9258L11.4375 13.5742C9.06975 12.8836 6.70201 12.8159 4.33426 13.3712C3.66973 13.527 3 13.0451 3 12.3626V2.47076Z"/>
</mask>
<path d="M11.4375 1.57422L12.034 -0.334741L12.0158 -0.340436L11.9975 -0.345781L11.4375 1.57422ZM12.5625 1.92578L11.966 3.83474L11.9842 3.84044L12.0025 3.84578L12.5625 1.92578ZM12.5625 13.9258L11.966 15.8347L11.9842 15.8404L12.0025 15.8458L12.5625 13.9258ZM11.4375 13.5742L12.034 11.6653L12.0158 11.6596L11.9975 11.6542L11.4375 13.5742ZM20.311 13.9621L20.8544 15.8869L20.311 13.9621ZM3.68897 1.53792L4.23233 3.4627C6.45326 2.83573 8.65377 2.84563 10.8775 3.49422L11.4375 1.57422L11.9975 -0.345781C9.05554 -1.20385 6.09036 -1.21815 3.14561 -0.38685L3.68897 1.53792ZM11.4375 1.57422L10.841 3.48318L11.966 3.83474L12.5625 1.92578L13.159 0.0168213L12.034 -0.334741L11.4375 1.57422ZM12.5625 1.92578L12.0025 3.84578C14.6962 4.63145 17.4141 4.71108 20.1224 4.076L19.6657 2.12882L19.2091 0.181639C17.1819 0.657029 15.1643 0.601302 13.1225 0.00578123L12.5625 1.92578ZM21 3.13743H19V13.0292H21H23V3.13743H21ZM20.311 13.9621L19.7677 12.0373C17.5467 12.6643 15.3462 12.6544 13.1225 12.0058L12.5625 13.9258L12.0025 15.8458C14.9445 16.7039 17.9096 16.7182 20.8544 15.8869L20.311 13.9621ZM12.5625 13.9258L13.159 12.0168L12.034 11.6653L11.4375 13.5742L10.841 15.4832L11.966 15.8347L12.5625 13.9258ZM11.4375 13.5742L11.9975 11.6542C9.30379 10.8686 6.58589 10.7889 3.87765 11.424L4.33426 13.3712L4.79087 15.3184C6.81812 14.843 8.83571 14.8987 10.8775 15.4942L11.4375 13.5742ZM3 12.3626H5V2.47076H3H1V12.3626H3ZM4.33426 13.3712L3.87765 11.424C4.14526 11.3612 4.41129 11.4276 4.61151 11.5765C4.82027 11.7317 5 12.0138 5 12.3626H3H1C1 14.4645 3.0013 15.738 4.79087 15.3184L4.33426 13.3712ZM21 13.0292H19C19 12.6205 19.2675 12.1785 19.7677 12.0373L20.311 13.9621L20.8544 15.8869C22.1831 15.5118 23 14.2989 23 13.0292H21ZM19.6657 2.12882L20.1224 4.076C19.8547 4.13875 19.5887 4.07244 19.3885 3.92352C19.1797 3.76825 19 3.48615 19 3.13743H21H23C23 1.03548 20.9987 -0.238013 19.2091 0.181639L19.6657 2.12882ZM3.68897 1.53792L3.14561 -0.38685C1.81693 -0.0117673 1 1.20111 1 2.47076H3H5C5 2.87955 4.73252 3.3215 4.23233 3.4627L3.68897 1.53792Z" fill="black" mask="url(#path-1-inside-1_32_397)"/>
<rect x="3" y="11" width="2" height="12" rx="1" fill="black"/>
</svg>
