<svg width="24" height="24" viewBox="0 0 24 24" fill="none" xmlns="http://www.w3.org/2000/svg">
<circle cx="12" cy="12" r="7" stroke="black" stroke-width="2"/>
<path d="M13 22C13 22.5523 12.5523 23 12 23C11.4477 23 11 22.5523 11 22V19.9303C11 19.4007 11.4704 19 12 19C12.5296 19 13 19.4007 13 19.9303V22ZM5.68406 16.9011C6.0584 16.5267 6.67586 16.5747 7.05031 16.9491C7.42462 17.3233 7.47271 17.9405 7.0985 18.3148L5.63574 19.7781C5.24528 20.1687 4.61209 20.1687 4.22156 19.7782C3.83112 19.3878 3.83107 18.7548 4.22144 18.3643L5.68406 16.9011ZM19.7783 18.3643C20.1688 18.7547 20.1688 19.3878 19.7783 19.7783C19.3878 20.1688 18.7547 20.1688 18.3643 19.7783L16.9008 18.3149C16.5265 17.9406 16.5746 17.3233 16.9489 16.9489C17.3233 16.5746 17.9406 16.5265 18.3149 16.9008L19.7783 18.3643ZM22 11C22.5523 11 23 11.4477 23 12C23 12.5523 22.5523 13 22 13H19.9312C19.4016 13 19 12.5296 19 12C19 11.4704 19.4016 11 19.9312 11H22ZM4.06881 11C4.59839 11 5 11.4704 5 12C5 12.5296 4.59839 13 4.06881 13H2C1.44772 13 1 12.5523 1 12C1 11.4477 1.44772 11 2 11H4.06881ZM7.09819 5.68413C7.47254 6.05847 7.42447 6.67578 7.05013 7.05013C6.67578 7.42447 6.05847 7.47254 5.68413 7.09819L4.22168 5.63574C3.8312 5.24526 3.8312 4.61216 4.22168 4.22168C4.61216 3.8312 5.24526 3.8312 5.63574 4.22168L7.09819 5.68413ZM19.7782 4.22156C20.1687 4.61209 20.1687 5.24528 19.7781 5.63574L18.3148 7.0985C17.9405 7.47272 17.3233 7.42462 16.9491 7.05031C16.5747 6.67586 16.5267 6.0584 16.9011 5.68406L18.3643 4.22144C18.7548 3.83107 19.3878 3.83112 19.7782 4.22156ZM13 4.06881C13 4.59839 12.5296 5 12 5C11.4704 5 11 4.59839 11 4.06881V2C11 1.44772 11.4477 1 12 1C12.5523 1 13 1.44772 13 2V4.06881Z" fill="black"/>
<circle cx="12" cy="12" r="1" fill="black"/>
</svg>
