<svg width="24" height="24" viewBox="0 0 24 24" fill="none" xmlns="http://www.w3.org/2000/svg">
<path d="M21 3V9H15" stroke="black" stroke-width="2" stroke-linecap="round"/>
<path d="M8.85225 2.5085C11.1944 1.73182 13.7414 1.84801 16.0026 2.83565C17.9571 3.68939 19.5793 5.14206 20.6433 6.97082C20.921 7.44825 20.6939 8.04474 20.1911 8.27337C19.6887 8.50183 19.1006 8.27598 18.8108 7.8062C17.4024 5.52264 14.8796 3.99971 11.9997 3.99971C7.58166 3.99987 3.99987 7.58167 3.99971 11.9997C3.99971 16.4179 7.58156 19.9996 11.9997 19.9997C16.08 19.9997 19.4468 16.945 19.9381 12.9977C20.0063 12.4497 20.4474 11.9997 20.9997 11.9997C21.552 11.9997 22.0049 12.4486 21.9498 12.9981C21.7387 15.1035 20.8638 17.0978 19.4382 18.6843C17.7888 20.5197 15.5187 21.6802 13.0651 21.9431C10.6115 22.2059 8.14694 21.5525 6.14619 20.1081C4.1456 18.6637 2.75008 16.5303 2.22725 14.1189C1.70447 11.7071 2.09205 9.18694 3.31514 7.04366C4.53819 4.90054 6.51013 3.28523 8.85225 2.5085Z" fill="black"/>
</svg>
