<svg width="24" height="24" viewBox="0 0 24 24" fill="none" xmlns="http://www.w3.org/2000/svg">
<mask id="path-1-inside-1_32_387" fill="white">
<path d="M15 3.90903C15 4.3164 15.25 4.67781 15.6132 4.86217C15.875 4.99503 16.1285 5.1419 16.3727 5.30175C16.7138 5.52498 17.152 5.56097 17.5051 5.35725L19.1605 4.40199C19.6387 4.12602 20.2502 4.2899 20.5263 4.76807L22.5262 8.23152C22.8024 8.70985 22.6385 9.32153 22.1602 9.59766L20.5051 10.553C20.1525 10.7565 19.9646 11.1532 19.9875 11.5596C19.9957 11.7054 20 11.8522 20 12C20 12.1475 19.9957 12.2941 19.9875 12.4396C19.9646 12.8459 20.1524 13.2425 20.5048 13.446L22.1605 14.4023C22.6387 14.6785 22.8025 15.29 22.5263 15.7683L20.5264 19.2317C20.2502 19.71 19.6387 19.8738 19.1604 19.5977L17.5052 18.642C17.1521 18.4382 16.7137 18.4741 16.3726 18.6974C16.1284 18.8572 15.875 19.004 15.6132 19.1369C15.2499 19.3212 15 19.6826 15 20.09V22C15 22.5523 14.5523 23 14 23H10C9.44772 23 9 22.5523 9 22V20.09C9 19.6826 8.75007 19.3212 8.38674 19.137C8.12473 19.0041 7.87105 18.8573 7.62664 18.6974C7.28536 18.4742 6.84689 18.4382 6.49375 18.6422L4.83965 19.5975C4.36137 19.8737 3.74973 19.7099 3.47354 19.2316L1.47359 15.7682C1.19745 15.29 1.36119 14.6784 1.83934 14.4022L3.49439 13.446C3.84671 13.2425 4.03461 12.846 4.01216 12.4397C4.00412 12.2941 4 12.1475 4 12C4 11.8522 4.00412 11.7054 4.01216 11.5596C4.03458 11.1532 3.84657 10.7565 3.49408 10.553L1.83966 9.59771C1.36137 9.32154 1.19753 8.70992 1.47371 8.23164L3.47365 4.76819C3.7498 4.28998 4.3613 4.12612 4.83956 4.40218L6.49387 5.35709C6.84696 5.5609 7.28529 5.5249 7.62647 5.30172C7.87092 5.14181 8.12466 4.99494 8.38671 4.86205C8.75005 4.67782 9 4.3164 9 3.90903V2C9 1.44772 9.44772 1 10 1H14C14.5523 1 15 1.44772 15 2V3.90903Z"/>
</mask>
<path d="M6.49387 5.35709L7.4937 3.62494V3.62494L6.49387 5.35709ZM7.62647 5.30172L8.72132 6.97542L7.62647 5.30172ZM1.83966 9.59771L2.83974 7.8657L1.83966 9.59771ZM4.01216 11.5596L2.01519 11.4494L4.01216 11.5596ZM3.49408 10.553L2.49401 12.285L3.49408 10.553ZM3.49439 13.446L2.49391 11.7143L3.49439 13.446ZM4.01216 12.4397L2.01521 12.55L4.01216 12.4397ZM1.47359 15.7682L-0.258391 16.7683L1.47359 15.7682ZM3.47354 19.2316L1.74156 20.2317L3.47354 19.2316ZM7.62664 18.6974L8.72145 17.0237L7.62664 18.6974ZM6.49375 18.6422L5.4935 16.9103L6.49375 18.6422ZM8.38674 19.137L9.29119 17.3532L8.38674 19.137ZM15.6132 19.1369L14.7082 17.3534L15.6132 19.1369ZM17.5052 18.642L18.5052 16.91L17.5052 18.642ZM20.5264 19.2317L22.2584 20.2318L20.5264 19.2317ZM19.1604 19.5977L20.1604 17.8656L19.1604 19.5977ZM22.1605 14.4023L23.1607 12.6703L22.1605 14.4023ZM22.5263 15.7683L20.7944 14.7682L22.5263 15.7683ZM19.9875 12.4396L17.9907 12.3268L19.9875 12.4396ZM20.5048 13.446L21.505 11.7141L20.5048 13.446ZM19.9875 11.5596L21.9843 11.447L19.9875 11.5596ZM22.5262 8.23152L24.2582 7.2314L22.5262 8.23152ZM22.1602 9.59766L21.1603 7.86551L22.1602 9.59766ZM19.1605 4.40199L18.1609 2.66971L19.1605 4.40199ZM20.5263 4.76807L18.7943 5.7682L20.5263 4.76807ZM17.5051 5.35725L16.5055 3.62497L17.5051 5.35725ZM15.6132 4.86217L14.7081 6.64564C14.9041 6.7451 15.0941 6.85517 15.2774 6.97517L16.3727 5.30175L17.468 3.62834C17.1629 3.42862 16.846 3.24497 16.5183 3.0787L15.6132 4.86217ZM17.5051 5.35725L18.5047 7.08953L20.1601 6.13428L19.1605 4.40199L18.1609 2.66971L16.5055 3.62497L17.5051 5.35725ZM20.5263 4.76807L18.7943 5.7682L20.7942 9.23164L22.5262 8.23152L24.2582 7.2314L22.2583 3.76795L20.5263 4.76807ZM22.1602 9.59766L21.1603 7.86551L19.5052 8.82086L20.5051 10.553L21.5049 12.2852L23.16 11.3298L22.1602 9.59766ZM19.9875 11.5596L17.9907 11.6723C17.9968 11.7814 18 11.8907 18 12H20H22C22 11.8138 21.9946 11.6294 21.9843 11.447L19.9875 11.5596ZM20 12H18C18 12.1089 17.9968 12.2179 17.9907 12.3268L19.9875 12.4396L21.9843 12.5524C21.9946 12.3703 22 12.1861 22 12H20ZM20.5048 13.446L19.5045 15.1779L21.1602 16.1342L22.1605 14.4023L23.1607 12.6703L21.505 11.7141L20.5048 13.446ZM22.5263 15.7683L20.7944 14.7682L18.7944 18.2316L20.5264 19.2317L22.2584 20.2318L24.2583 16.7684L22.5263 15.7683ZM19.1604 19.5977L20.1604 17.8656L18.5052 16.91L17.5052 18.642L16.5052 20.3741L18.1604 21.3297L19.1604 19.5977ZM16.3726 18.6974L15.2773 17.024C15.0941 17.1439 14.9041 17.2539 14.7082 17.3534L15.6132 19.1369L16.5182 20.9204C16.8458 20.7542 17.1627 20.5706 17.4678 20.3709L16.3726 18.6974ZM15 20.09H13V22H15H17V20.09H15ZM14 23V21H10V23V25H14V23ZM9 22H11V20.09H9H7V22H9ZM8.38674 19.137L9.29119 17.3532C9.09488 17.2536 8.90473 17.1436 8.72145 17.0237L7.62664 18.6974L6.53183 20.3712C6.83738 20.571 7.15459 20.7546 7.4823 20.9208L8.38674 19.137ZM6.49375 18.6422L5.4935 16.9103L3.8394 17.8656L4.83965 19.5975L5.8399 21.3294L7.494 20.3741L6.49375 18.6422ZM3.47354 19.2316L5.20552 18.2315L3.20557 14.768L1.47359 15.7682L-0.258391 16.7683L1.74156 20.2317L3.47354 19.2316ZM1.83934 14.4022L2.83982 16.134L4.49487 15.1778L3.49439 13.446L2.49391 11.7143L0.838856 12.6704L1.83934 14.4022ZM4.01216 12.4397L6.00912 12.3294C6.00308 12.2201 6 12.1103 6 12H4H2C2 12.1848 2.00516 12.3682 2.01521 12.55L4.01216 12.4397ZM4 12H6C6 11.8894 6.00308 11.7793 6.00912 11.6698L4.01216 11.5596L2.01519 11.4494C2.00515 11.6315 2 11.8151 2 12H4ZM3.49408 10.553L4.49416 8.82097L2.83974 7.8657L1.83966 9.59771L0.839587 11.3297L2.49401 12.285L3.49408 10.553ZM1.47371 8.23164L3.20569 9.23176L5.20563 5.76831L3.47365 4.76819L1.74167 3.76807L-0.258274 7.23152L1.47371 8.23164ZM4.83956 4.40218L3.83973 6.13433L5.49403 7.08923L6.49387 5.35709L7.4937 3.62494L5.8394 2.67004L4.83956 4.40218ZM7.62647 5.30172L8.72132 6.97542C8.90469 6.85547 9.0949 6.74538 9.29122 6.64583L8.38671 4.86205L7.4822 3.07828C7.15442 3.24449 6.83716 3.42814 6.53161 3.62801L7.62647 5.30172ZM9 3.90903H11V2H9H7V3.90903H9ZM10 1V3H14V1V-1H10V1ZM15 2H13V3.90903H15H17V2H15ZM14 1V3C13.4477 3 13 2.55229 13 2H15H17C17 0.343145 15.6569 -1 14 -1V1ZM6.49387 5.35709L5.49403 7.08923C6.58036 7.71629 7.82988 7.55856 8.72132 6.97542L7.62647 5.30172L6.53161 3.62801C6.74069 3.49124 7.11355 3.40551 7.4937 3.62494L6.49387 5.35709ZM3.47365 4.76819L5.20563 5.76831C4.92949 6.24653 4.31799 6.41039 3.83973 6.13433L4.83956 4.40218L5.8394 2.67004C4.40461 1.84184 2.5701 2.33342 1.74167 3.76807L3.47365 4.76819ZM1.83966 9.59771L2.83974 7.8657C3.31802 8.14187 3.48187 8.75348 3.20569 9.23176L1.47371 8.23164L-0.258274 7.23152C-1.08682 8.66637 -0.595282 10.5012 0.839587 11.3297L1.83966 9.59771ZM4.01216 11.5596L6.00912 11.6698C6.0678 10.606 5.57856 9.44712 4.49416 8.82097L3.49408 10.553L2.49401 12.285C2.11458 12.0659 2.00135 11.7004 2.01519 11.4494L4.01216 11.5596ZM3.49439 13.446L4.49487 15.1778C5.57881 14.5516 6.06789 13.393 6.00912 12.3294L4.01216 12.4397L2.01521 12.55C2.00134 12.2989 2.11462 11.9334 2.49391 11.7143L3.49439 13.446ZM1.47359 15.7682L3.20557 14.768C3.4817 15.2462 3.31797 15.8577 2.83982 16.134L1.83934 14.4022L0.838856 12.6704C-0.595582 13.4991 -1.0868 15.3337 -0.258391 16.7683L1.47359 15.7682ZM4.83965 19.5975L3.8394 17.8656C4.31768 17.5894 4.92933 17.7532 5.20552 18.2315L3.47354 19.2316L1.74156 20.2317C2.57013 21.6666 4.40506 22.1581 5.8399 21.3294L4.83965 19.5975ZM7.62664 18.6974L8.72145 17.0237C7.82988 16.4405 6.58002 16.2828 5.4935 16.9103L6.49375 18.6422L7.494 20.3741C7.11376 20.5937 6.74085 20.5079 6.53183 20.3712L7.62664 18.6974ZM9 20.09H11C11 18.8366 10.2399 17.8342 9.29119 17.3532L8.38674 19.137L7.4823 20.9208C7.26027 20.8082 7 20.5286 7 20.09H9ZM10 23V21C10.5523 21 11 21.4477 11 22H9H7C7 23.6569 8.34315 25 10 25V23ZM15.6132 19.1369L14.7082 17.3534C13.7602 17.8344 13 18.8365 13 20.09H15H17C17 20.5287 16.7397 20.808 16.5182 20.9204L15.6132 19.1369ZM17.5052 18.642L18.5052 16.91C17.4189 16.2828 16.169 16.4403 15.2773 17.024L16.3726 18.6974L17.4678 20.3709C17.2584 20.5079 16.8853 20.5935 16.5052 20.3741L17.5052 18.642ZM20.5264 19.2317L18.7944 18.2316C19.0706 17.7533 19.6821 17.5895 20.1604 17.8656L19.1604 19.5977L18.1604 21.3297C19.5952 22.1581 21.4299 21.6666 22.2584 20.2318L20.5264 19.2317ZM22.1605 14.4023L21.1602 16.1342C20.682 15.858 20.5182 15.2464 20.7944 14.7682L22.5263 15.7683L24.2583 16.7684C25.0868 15.3336 24.5954 13.4989 23.1607 12.6703L22.1605 14.4023ZM19.9875 12.4396L17.9907 12.3268C17.9305 13.3921 18.4201 14.5516 19.5045 15.1779L20.5048 13.446L21.505 11.7141C21.8847 11.9334 21.9986 12.2998 21.9843 12.5524L19.9875 12.4396ZM20.5051 10.553L19.5052 8.82086C18.4203 9.4471 17.9306 10.6069 17.9907 11.6723L19.9875 11.5596L21.9843 11.447C21.9986 11.6995 21.8847 12.0659 21.5049 12.2852L20.5051 10.553ZM22.5262 8.23152L20.7942 9.23164C20.518 8.75332 20.6819 8.14164 21.1603 7.86551L22.1602 9.59766L23.16 11.3298C24.5951 10.5014 25.0868 8.66639 24.2582 7.2314L22.5262 8.23152ZM19.1605 4.40199L20.1601 6.13428C19.6818 6.41025 19.0704 6.24637 18.7943 5.7682L20.5263 4.76807L22.2583 3.76795C21.4299 2.33344 19.5956 1.84179 18.1609 2.66971L19.1605 4.40199ZM9 2H11C11 2.55228 10.5523 3 10 3V1V-1C8.34315 -1 7 0.343146 7 2H9ZM16.3727 5.30175L15.2774 6.97517C16.169 7.55874 17.4185 7.71629 18.5047 7.08953L17.5051 5.35725L16.5055 3.62497C16.8855 3.40566 17.2585 3.49122 17.468 3.62834L16.3727 5.30175ZM15 22H13C13 21.4477 13.4477 21 14 21V23V25C15.6569 25 17 23.6569 17 22H15ZM8.38671 4.86205L9.29122 6.64583C10.2398 6.16483 11 5.16248 11 3.90903H9H7C7 3.47033 7.26029 3.1908 7.4822 3.07828L8.38671 4.86205ZM15.6132 4.86217L16.5183 3.0787C16.7397 3.19104 17 3.47027 17 3.90903H15H13C13 5.16254 13.7602 6.16458 14.7081 6.64564L15.6132 4.86217Z" fill="black" mask="url(#path-1-inside-1_32_387)"/>
<circle cx="12" cy="12" r="3" stroke="black" stroke-width="2"/>
</svg>
